REM DIRINDEX 1\2,1\3,1\4,1\5
REM DIRNAME cjc005,folder01,folder02,folder03,folder04
TITLE ""
FILE "P1Q_t_1070-1079.mp3" MP3
  TRACK 01 AUDIO
    TITLE "3:cjc005_4116"
    INDEX 01 00:00:00
  TRACK 02 AUDIO
    TITLE "0:"
    INDEX 01 00:01:11
  TRACK 03 AUDIO
    TITLE "4:cjc005_4117"
    INDEX 01 00:01:40
  TRACK 04 AUDIO
    TITLE "0:"
    INDEX 01 00:02:51
  TRACK 05 AUDIO
    TITLE "5:cjc005_4118"
    INDEX 01 00:03:00
  TRACK 06 AUDIO
    TITLE "0:"
    INDEX 01 00:08:03
  TRACK 07 AUDIO
    TITLE "3:cjc005_4119"
    INDEX 01 00:08:56
  TRACK 08 AUDIO
    TITLE "0:"
    INDEX 01 00:09:65
  TRACK 09 AUDIO
    TITLE "4:cjc005_4120"
    INDEX 01 00:10:19
  TRACK 10 AUDIO
    TITLE "0:"
    INDEX 01 00:11:39
  TRACK 11 AUDIO
    TITLE "5:cjc005_4121"
    INDEX 01 00:11:60
  TRACK 12 AUDIO
    TITLE "0:"
    INDEX 01 00:17:12
  TRACK 13 AUDIO
    TITLE "3:cjc005_4122"
    INDEX 01 00:17:65
  TRACK 14 AUDIO
    TITLE "0:"
    INDEX 01 00:18:74
  TRACK 15 AUDIO
    TITLE "4:cjc005_4123"
    INDEX 01 00:19:30
  TRACK 16 AUDIO
    TITLE "0:"
    INDEX 01 00:20:43
  TRACK 17 AUDIO
    TITLE "5:cjc005_4124"
    INDEX 01 00:20:63
  TRACK 18 AUDIO
    TITLE "0:"
    INDEX 01 00:23:57
  TRACK 19 AUDIO
    TITLE "3:cjc005_4125"
    INDEX 01 00:24:37
  TRACK 20 AUDIO
    TITLE "0:"
    INDEX 01 00:25:52
  TRACK 21 AUDIO
    TITLE "4:cjc005_4126"
    INDEX 01 00:26:01
  TRACK 22 AUDIO
    TITLE "0:"
    INDEX 01 00:28:00
  TRACK 23 AUDIO
    TITLE "5:cjc005_4127"
    INDEX 01 00:28:23
  TRACK 24 AUDIO
    TITLE "0:"
    INDEX 01 00:31:06
  TRACK 25 AUDIO
    TITLE "3:cjc005_4128"
    INDEX 01 00:31:63
  TRACK 26 AUDIO
    TITLE "0:"
    INDEX 01 00:32:66
  TRACK 27 AUDIO
    TITLE "4:cjc005_4129"
    INDEX 01 00:33:19
  TRACK 28 AUDIO
    TITLE "0:"
    INDEX 01 00:35:02
  TRACK 29 AUDIO
    TITLE "5:cjc005_4130"
    INDEX 01 00:35:21
  TRACK 30 AUDIO
    TITLE "0:"
    INDEX 01 00:39:00
  TRACK 31 AUDIO
    TITLE "3:cjc005_4131"
    INDEX 01 00:39:49
  TRACK 32 AUDIO
    TITLE "0:"
    INDEX 01 00:41:02
  TRACK 33 AUDIO
    TITLE "4:cjc005_4132"
    INDEX 01 00:41:28
  TRACK 34 AUDIO
    TITLE "0:"
    INDEX 01 00:42:74
  TRACK 35 AUDIO
    TITLE "5:cjc005_4133"
    INDEX 01 00:43:23
  TRACK 36 AUDIO
    TITLE "0:"
    INDEX 01 00:48:02
  TRACK 37 AUDIO
    TITLE "3:cjc005_4134"
    INDEX 01 00:48:51
  TRACK 38 AUDIO
    TITLE "0:"
    INDEX 01 00:50:13
  TRACK 39 AUDIO
    TITLE "4:cjc005_4135"
    INDEX 01 00:50:39
  TRACK 40 AUDIO
    TITLE "0:"
    INDEX 01 00:52:20
  TRACK 41 AUDIO
    TITLE "5:cjc005_4136"
    INDEX 01 00:52:41
  TRACK 42 AUDIO
    TITLE "0:"
    INDEX 01 00:57:23
  TRACK 43 AUDIO
    TITLE "3:cjc005_4137"
    INDEX 01 00:58:01
  TRACK 44 AUDIO
    TITLE "0:"
    INDEX 01 00:59:30
  TRACK 45 AUDIO
    TITLE "4:cjc005_4138"
    INDEX 01 00:59:53
  TRACK 46 AUDIO
    TITLE "0:"
    INDEX 01 01:01:09
  TRACK 47 AUDIO
    TITLE "5:cjc005_4139"
    INDEX 01 01:01:33
  TRACK 48 AUDIO
    TITLE "0:"
    INDEX 01 01:05:54
  TRACK 49 AUDIO
    TITLE "3:cjc005_4140"
    INDEX 01 01:06:40
  TRACK 50 AUDIO
    TITLE "0:"
    INDEX 01 01:07:66
  TRACK 51 AUDIO
    TITLE "4:cjc005_4141"
    INDEX 01 01:08:17
  TRACK 52 AUDIO
    TITLE "0:"
    INDEX 01 01:09:30
  TRACK 53 AUDIO
    TITLE "5:cjc005_4142"
    INDEX 01 01:09:56
  TRACK 54 AUDIO
    TITLE "0:"
    INDEX 01 01:14:33
  TRACK 55 AUDIO
    TITLE "3:cjc005_4143"
    INDEX 01 01:15:09
  TRACK 56 AUDIO
    TITLE "0:"
    INDEX 01 01:16:48
  TRACK 57 AUDIO
    TITLE "4:cjc005_4144"
    INDEX 01 01:16:69
  TRACK 58 AUDIO
    TITLE "0:"
    INDEX 01 01:18:64
  TRACK 59 AUDIO
    TITLE "5:cjc005_4145"
    INDEX 01 01:19:11
  TRACK 60 AUDIO
    TITLE "0:"
    INDEX 01 01:24:34
